<?xml version="1.0" encoding="utf-8"?>
<!-- Generator: Adobe Illustrator 21.1.0, SVG Export Plug-In . SVG Version: 6.00 Build 0)  -->
<svg version="1.1" id="Layer_1" xmlns="http://www.w3.org/2000/svg" xmlns:xlink="http://www.w3.org/1999/xlink" x="0px" y="0px"
	 viewBox="0 0 50 50" style="enable-background:new 0 0 50 50;" xml:space="preserve">
<path id="f_1_" d="M30,26l1-5h-5v-4c0-1.5,0.8-2,3-2h2v-5c0,0-2,0-4,0c-4.1,0-7,2.4-7,7v4h-5v5h5v14h6V26H30z"/>
<path d="M25,1C11.7,1,1,11.7,1,25s10.7,24,24,24s24-10.7,24-24S38.3,1,25,1z M25,44C14.5,44,6,35.5,6,25S14.5,6,25,6s19,8.5,19,19
	S35.5,44,25,44z"/>
</svg>
