<?xml version="1.0" encoding="utf-8"?>
<!-- Generator: Adobe Illustrator 21.1.0, SVG Export Plug-In . SVG Version: 6.00 Build 0)  -->
<svg version="1.1" id="Layer_1" xmlns="http://www.w3.org/2000/svg" xmlns:xlink="http://www.w3.org/1999/xlink" x="0px" y="0px"
	 viewBox="0 0 50 50" style="enable-background:new 0 0 50 50;" xml:space="preserve">
<g id="OK_1_">
	<path id="K_1_" d="M32,25c-1,0-3,2-7,2s-6-2-7-2c-1.1,0-2,0.9-2,2c0,1,0.6,1.5,1,1.7c1.2,0.7,5,2.3,5,2.3l-4.3,5.4
		c0,0-0.8,0.9-0.8,1.6c0,1.1,0.9,2,2,2c1,0,1.5-0.7,1.5-0.7L25,34l4.5,5.3c0,0,0.5,0.7,1.5,0.7c1.1,0,2-0.9,2-2
		c0-0.6-0.8-1.6-0.8-1.6L28,31c0,0,3.8-1.6,5-2.3c0.4-0.3,1-0.7,1-1.7C34,25.9,33.1,25,32,25z"/>
	<path id="O_1_" d="M25,10c-3.9,0-7,3.1-7,7s3.1,7,7,7s7-3.1,7-7S28.9,10,25,10z M25,20.5c-1.9,0-3.5-1.6-3.5-3.5s1.6-3.5,3.5-3.5
		s3.5,1.6,3.5,3.5S26.9,20.5,25,20.5z"/>
</g>
<path d="M25,1C11.7,1,1,11.7,1,25s10.7,24,24,24s24-10.7,24-24S38.3,1,25,1z M25,44C14.5,44,6,35.5,6,25S14.5,6,25,6s19,8.5,19,19
	S35.5,44,25,44z"/>
</svg>
