<?xml version="1.0" encoding="utf-8"?>
<!-- Generator: Adobe Illustrator 21.1.0, SVG Export Plug-In . SVG Version: 6.00 Build 0)  -->
<svg version="1.1" id="Layer_1" xmlns="http://www.w3.org/2000/svg" xmlns:xlink="http://www.w3.org/1999/xlink" x="0px" y="0px"
	 viewBox="0 0 50 50" style="enable-background:new 0 0 50 50;" xml:space="preserve">
<style type="text/css">
	.st0{fill:#1A1A1A;}
</style>
<path id="VK_1_" class="st0" d="M26,34c1,0,1-1.4,1-2c0-1,1-2,2-2s2.7,1.7,4,3c1,1,1,1,2,1s3,0,3,0s2-0.1,2-2c0-0.6-0.7-1.7-3-4
	c-2-2-3-1,0-5c1.8-2.5,3.2-4.7,3-5.3c-0.2-0.6-5.3-1.6-6-0.7c-2,3-2.4,3.7-3,5c-1,2-1.1,3-2,3s-1-1.9-1-3c0-3.3,0.5-5.6-1-6
	c0,0-2,0-3,0c-1.6,0-3,1-3,1s-1.2,1-1,1c0.3,0,2-0.4,2,1c0,1,0,2,0,2s0,4-1,4s-3-4-5-7c-0.8-1.2-1-1-2-1c-1.1,0-2,0-3,0
	s-1.1,0.6-1,1c2,5,3.4,8.1,7.2,12.1c3.5,3.6,5.8,3.8,7.8,3.9C25.5,34,25,34,26,34z"/>
<path class="st0" d="M25,1C11.7,1,1,11.7,1,25s10.7,24,24,24s24-10.7,24-24S38.3,1,25,1z M25,44C14.5,44,6,35.5,6,25S14.5,6,25,6
	s19,8.5,19,19S35.5,44,25,44z"/>
</svg>
